<svg id="visual" viewBox="0 0 900 600" width="900" height="600" xmlns="http://www.w3.org/2000/svg" xmlns:xlink="http://www.w3.org/1999/xlink" version="1.1"><path d="M0 372L10.7 371.5C21.3 371 42.7 370 64.2 361.7C85.7 353.3 107.3 337.7 128.8 339.3C150.3 341 171.7 360 193 366.2C214.3 372.3 235.7 365.7 257 360.7C278.3 355.7 299.7 352.3 321.2 359.3C342.7 366.3 364.3 383.7 385.8 387.5C407.3 391.3 428.7 381.7 450 378.3C471.3 375 492.7 378 514.2 381C535.7 384 557.3 387 578.8 389C600.3 391 621.7 392 643 390.8C664.3 389.7 685.7 386.3 707 375.2C728.3 364 749.7 345 771.2 349.2C792.7 353.3 814.3 380.7 835.8 389.3C857.3 398 878.7 388 889.3 383L900 378L900 601L889.3 601C878.7 601 857.3 601 835.8 601C814.3 601 792.7 601 771.2 601C749.7 601 728.3 601 707 601C685.7 601 664.3 601 643 601C621.7 601 600.3 601 578.8 601C557.3 601 535.7 601 514.2 601C492.7 601 471.3 601 450 601C428.7 601 407.3 601 385.8 601C364.3 601 342.7 601 321.2 601C299.7 601 278.3 601 257 601C235.7 601 214.3 601 193 601C171.7 601 150.3 601 128.8 601C107.3 601 85.7 601 64.2 601C42.7 601 21.3 601 10.7 601L0 601Z" fill="#8d7a9c"></path><path d="M0 425L10.7 426.3C21.3 427.7 42.7 430.3 64.2 424.5C85.7 418.7 107.3 404.3 128.8 398.2C150.3 392 171.7 394 193 395.7C214.3 397.3 235.7 398.7 257 404.7C278.3 410.7 299.7 421.3 321.2 425C342.7 428.7 364.3 425.3 385.8 415.7C407.3 406 428.7 390 450 392.8C471.3 395.7 492.7 417.3 514.2 419.8C535.7 422.3 557.3 405.7 578.8 402.7C600.3 399.7 621.7 410.3 643 407.2C664.3 404 685.7 387 707 383.2C728.3 379.3 749.7 388.7 771.2 397C792.7 405.3 814.3 412.7 835.8 415.3C857.3 418 878.7 416 889.3 415L900 414L900 601L889.3 601C878.7 601 857.3 601 835.8 601C814.3 601 792.7 601 771.2 601C749.7 601 728.3 601 707 601C685.7 601 664.3 601 643 601C621.7 601 600.3 601 578.8 601C557.3 601 535.7 601 514.2 601C492.7 601 471.3 601 450 601C428.7 601 407.3 601 385.8 601C364.3 601 342.7 601 321.2 601C299.7 601 278.3 601 257 601C235.7 601 214.3 601 193 601C171.7 601 150.3 601 128.8 601C107.3 601 85.7 601 64.2 601C42.7 601 21.3 601 10.7 601L0 601Z" fill="#7a658b"></path><path d="M0 421L10.7 429.2C21.3 437.3 42.7 453.7 64.2 455.8C85.7 458 107.3 446 128.8 440.8C150.3 435.7 171.7 437.3 193 442.7C214.3 448 235.7 457 257 455.5C278.3 454 299.7 442 321.2 447.3C342.7 452.7 364.3 475.3 385.8 482.8C407.3 490.3 428.7 482.7 450 481.5C471.3 480.3 492.7 485.7 514.2 482.2C535.7 478.7 557.3 466.3 578.8 457C600.3 447.7 621.7 441.3 643 438.3C664.3 435.3 685.7 435.7 707 435.5C728.3 435.3 749.7 434.7 771.2 438C792.7 441.3 814.3 448.7 835.8 451.5C857.3 454.3 878.7 452.7 889.3 451.8L900 451L900 601L889.3 601C878.7 601 857.3 601 835.8 601C814.3 601 792.7 601 771.2 601C749.7 601 728.3 601 707 601C685.7 601 664.3 601 643 601C621.7 601 600.3 601 578.8 601C557.3 601 535.7 601 514.2 601C492.7 601 471.3 601 450 601C428.7 601 407.3 601 385.8 601C364.3 601 342.7 601 321.2 601C299.7 601 278.3 601 257 601C235.7 601 214.3 601 193 601C171.7 601 150.3 601 128.8 601C107.3 601 85.7 601 64.2 601C42.7 601 21.3 601 10.7 601L0 601Z" fill="#68517b"></path><path d="M0 509L10.7 503.2C21.3 497.3 42.7 485.7 64.2 480.3C85.7 475 107.3 476 128.8 475.8C150.3 475.7 171.7 474.3 193 475.5C214.3 476.7 235.7 480.3 257 479.2C278.3 478 299.7 472 321.2 480.5C342.7 489 364.3 512 385.8 516.3C407.3 520.7 428.7 506.3 450 495C471.3 483.7 492.7 475.3 514.2 480.2C535.7 485 557.3 503 578.8 511.8C600.3 520.7 621.7 520.3 643 515.7C664.3 511 685.7 502 707 505.7C728.3 509.3 749.7 525.7 771.2 526C792.7 526.3 814.3 510.7 835.8 509.3C857.3 508 878.7 521 889.3 527.5L900 534L900 601L889.3 601C878.7 601 857.3 601 835.8 601C814.3 601 792.7 601 771.2 601C749.7 601 728.3 601 707 601C685.7 601 664.3 601 643 601C621.7 601 600.3 601 578.8 601C557.3 601 535.7 601 514.2 601C492.7 601 471.3 601 450 601C428.7 601 407.3 601 385.8 601C364.3 601 342.7 601 321.2 601C299.7 601 278.3 601 257 601C235.7 601 214.3 601 193 601C171.7 601 150.3 601 128.8 601C107.3 601 85.7 601 64.2 601C42.7 601 21.3 601 10.7 601L0 601Z" fill="#5a466a"></path><path d="M0 569L10.7 563.3C21.3 557.7 42.7 546.3 64.2 548.3C85.7 550.3 107.3 565.7 128.8 565C150.3 564.3 171.7 547.7 193 546.7C214.3 545.7 235.7 560.3 257 561.8C278.3 563.3 299.7 551.7 321.2 550.2C342.7 548.7 364.3 557.3 385.8 558.7C407.3 560 428.7 554 450 556.7C471.3 559.3 492.7 570.7 514.2 572C535.7 573.3 557.3 564.7 578.8 557.3C600.3 550 621.7 544 643 538.2C664.3 532.3 685.7 526.7 707 528.3C728.3 530 749.7 539 771.2 539.2C792.7 539.3 814.3 530.7 835.8 533.7C857.3 536.7 878.7 551.3 889.3 558.7L900 566L900 601L889.3 601C878.7 601 857.3 601 835.8 601C814.3 601 792.7 601 771.2 601C749.7 601 728.3 601 707 601C685.7 601 664.3 601 643 601C621.7 601 600.3 601 578.8 601C557.3 601 535.7 601 514.2 601C492.7 601 471.3 601 450 601C428.7 601 407.3 601 385.8 601C364.3 601 342.7 601 321.2 601C299.7 601 278.3 601 257 601C235.7 601 214.3 601 193 601C171.7 601 150.3 601 128.8 601C107.3 601 85.7 601 64.2 601C42.7 601 21.3 601 10.7 601L0 601Z" fill="#4c3b5a"></path></svg>